<svg xmlns="http://www.w3.org/2000/svg" shape-rendering="geometricPrecision" text-rendering="geometricPrecision" image-rendering="optimizeQuality" fill-rule="evenodd" clip-rule="evenodd" viewBox="0 0 394 511.98" stroke="#0066ff" fill="none" width="24" height="24" stroke-width="2" stroke-linecap="round" stroke-linejoin="round"><path d="M158.912 88.115c-7.903-23.315-15.02-46.892-21.026-70.838 22.398-24.583 108.964-21.316 133.86-.384l-23.05 54.803c12.396-16.286 16.563-22.97 23.958-32.043a71.446 71.446 0 018.787 6.814c6.557 5.936 12.412 12.495 13.597 21.638.768 5.929-.927 11.952-6.203 18.111l-52.884 61.595c-6.807-1.116-13.459-2.75-19.914-5.044 2.999-7.058 6.616-14.823 9.615-21.882l-19.253 20.795c-20.058-4.232-36.188-1.707-51.219 6.242l-53.632-64.366c-3.186-3.839-4.636-7.678-4.624-11.517.051-15.559 23.218-28.987 35.396-34.07l26.592 50.146zm41.372 294.903h-53.959v-11.009l31.67-43.033h-29.773v-14.261h50.977v12.113l-30.816 41.929h31.901v14.261zm36.356-74.015l5.737 5.406-17.368 18.45v50.159h-15.915v-33.253l-9.649 10.25-5.738-5.405 15.387-16.346v-43.747h15.915v26.841l11.631-12.355zm-9.001-104.594l-10.467-47.871c44.832 8.338 116.691 99.534 139.911 140.998 11.852 21.164 22.232 44.48 30.731 70.545 16.931 63.08.622 122.093-67.807 135.838-42.877 8.614-122.838 9.224-167.93 6.891-48.476-2.509-123.494-2.432-143.09-52.204-31.628-80.338 26.319-176.045 79.155-234.623 6.952-7.708 14.141-14.892 21.579-21.522 19.219-16.91 39.943-36.976 64.682-45.319l-23.895 44.495 34.705-46.011h18.288l24.138 48.783zm-119.957 88.228c25.48-47.867 84.932-66.014 132.799-40.535 47.867 25.48 66.014 84.932 40.535 132.799-25.48 47.867-84.932 66.014-132.799 40.535-47.868-25.48-66.014-84.932-40.535-132.799z"/></svg>